<?xml version="1.0" encoding="utf-8"?>
<!-- Generator: Adobe Illustrator 15.1.0, SVG Export Plug-In . SVG Version: 6.00 Build 0)  -->
<!DOCTYPE svg PUBLIC "-//W3C//DTD SVG 1.1//EN" "http://www.w3.org/Graphics/SVG/1.1/DTD/svg11.dtd">
<svg version="1.1" id="Ebene_1" xmlns="http://www.w3.org/2000/svg" xmlns:xlink="http://www.w3.org/1999/xlink" x="0px" y="0px"
	 width="566.929px" height="82.329px" viewBox="0 0 566.929 82.329" enable-background="new 0 0 566.929 82.329"
	 xml:space="preserve">
<path fill="#69143A" d="M485.229,82.329V0h15.479l25.398,49.584L551.735,0h15.193v82.329h-11.28V16.643l-25.146,45.353h-9.071
	l-24.922-45.353v65.687H485.229z M421.659,38.446h17.747c9.3,0,15.481-5.388,15.481-13.948c0-8.848-6.182-14.29-15.481-14.29
	h-17.747V38.446z M410.151,82.329V0h31.468c7.541,0,13.944,2.78,18.256,7.148c4.312,4.363,6.752,10.544,6.752,17.35
	c0,11.508-6.809,20.241-18.146,23.019l17.516,34.813h-13.095l-16.389-33.681h-14.854v33.681H410.151z M340.229,82.329V0h50.066
	v10.55h-38.676v25.342h35.1v10.662h-35.1v25.228h38.676v10.548H340.229z M268.481,72.237h16.84c7.538,0,14.688-2.611,19.785-7.709
	c5.105-5.104,8.222-12.816,8.222-23.194c0-10.375-3.173-18.198-8.16-23.414c-5.044-5.158-12.077-7.826-19.617-7.826h-17.07V72.237z
	 M257.087,82.329V0h28.801c10.375,0,20.297,3.573,27.439,10.55c7.149,6.972,11.683,17.347,11.683,30.784
	c0,13.437-4.533,23.761-11.796,30.622c-7.314,6.858-17.175,10.373-27.552,10.373H257.087z M222.218,0h11.624v82.329h-11.624V0z
	 M134.422,0h12.075l24.837,67.697L196.451,0h11.965l-31.752,82.329h-11.227L134.422,0z M74.168,82.329V0h50.066v10.55H85.562v25.342
	h35.099v10.662H85.562v25.228h38.672v10.548H74.168z M11.512,38.446h17.747c9.295,0,15.476-5.388,15.476-13.948
	c0-8.848-6.181-14.29-15.476-14.29H11.512V38.446z M0,82.329V0h31.47c7.54,0,13.946,2.78,18.256,7.148
	c4.309,4.363,6.747,10.544,6.747,17.35c0,11.508-6.806,20.241-18.145,23.019L55.85,82.329h-13.1L26.365,48.648H11.512v33.681H0z"/>
</svg>
